<?xml version="1.0" standalone="no"?>
<!DOCTYPE svg PUBLIC "-//W3C//DTD SVG 20010904//EN"
 "http://www.w3.org/TR/2001/REC-SVG-20010904/DTD/svg10.dtd">
<svg version="1.0" xmlns="http://www.w3.org/2000/svg"
 width="636.000000pt" height="636.000000pt" viewBox="0 0 636.000000 636.000000"
 preserveAspectRatio="xMidYMid meet">

<defs>
    <linearGradient id="bgGradient" x1="0%" y1="0%" x2="100%" y2="100%">
        <stop offset="0%" style="stop-color:#7B2FFF;stop-opacity:1" />
        <stop offset="50%" style="stop-color:#00D9FF;stop-opacity:1" />
        <stop offset="100%" style="stop-color:#00FF88;stop-opacity:1" />
    </linearGradient>
    <mask id="logoMask">
        <rect width="100%" height="100%" fill="white"/>
        <g transform="translate(318, 210) scale(0.08, -0.08) translate(-3180, -2025)" fill="black" stroke="none">
            <path d="m3236 1743 c22 -24 90 -113 151 -198 145 -200 317 -437 346 -475 13
-16 76 -103 141 -192 64 -90 123 -163 130 -163 15 0 30 18 208 256 133 177
185 234 213 234 44 0 65 -23 309 -340 66 -85 146 -189 178 -230 135 -175 218
-283 322 -420 60 -80 132 -174 160 -210 28 -36 168 -220 311 -410 144 -190
324 -427 400 -528 76 -100 136 -185 132 -188 -22 -22 -337 -32 -374 -11 -22
12 -436 563 -1092 1452 -203 274 -287 381 -308 389 -7 3 -19 3 -27 0 -12 -5
-458 -556 -645 -797 l-53 -69 29 -36 c17 -21 64 -83 107 -139 43 -56 92 -118
110 -139 l32 -37 110 153 c153 214 274 370 288 370 17 0 87 -76 235 -255 34
-42 232 -301 447 -585 40 -52 145 -189 233 -305 353 -460 462 -607 458 -618
-2 -7 -21 -15 -43 -19 -21 -4 -487 -7 -1035 -7 l-996 -1 -66 87 c-193 260
-421 547 -466 587 -20 19 -21 18 -58 -20 -61 -62 -103 -113 -326 -392 l-211
-263 -1027 3 c-565 2 -1030 6 -1034 10 -16 16 56 118 341 484 95 122 236 307
315 410 237 315 349 461 454 595 83 105 159 203 242 308 15 19 -9 47 236 -268
153 -195 192 -240 203 -230 7 6 53 63 101 127 165 217 156 202 140 215 -9 7
-32 35 -53 62 -21 28 -65 86 -99 130 -34 44 -151 199 -260 345 -213 285 -242
320 -262 320 -15 0 -70 -69 -324 -405 -487 -644 -1011 -1330 -1083 -1417 l-49
-60 -168 4 c-92 2 -171 6 -175 11 -12 11 12 48 140 216 65 86 189 251 276 366
215 286 304 403 445 584 131 168 218 280 364 471 100 132 305 397 377 490 24
30 68 88 97 128 67 89 100 116 131 108 15 -4 88 -90 214 -255 106 -137 196
-252 201 -255 5 -3 44 43 87 102 194 267 642 859 686 908 62 67 82 69 134 12z"/>
<path d="M3124 3268 c-34 -36 -201 -259 -308 -412 -16 -22 -87 -120 -157 -217
-71 -98 -129 -179 -129 -182 0 -13 232 -312 243 -312 7 0 69 77 139 170 167
222 234 297 261 293 14 -2 49 -40 97 -105 41 -56 120 -163 175 -238 55 -74
102 -135 105 -135 3 1 34 40 70 88 36 48 93 122 128 165 l64 78 -40 52 c-21
29 -155 210 -297 402 -255 346 -293 395 -305 395 -3 0 -24 -19 -46 -42z"/>
<path d="M3113 2068 c-22 -24 -119 -144 -214 -268 -95 -124 -194 -252 -219
-285 -139 -180 -172 -225 -168 -234 7 -22 244 -321 253 -320 6 0 60 65 120
145 61 80 117 154 125 164 8 10 42 52 75 94 33 41 65 75 71 76 16 0 51 -40
229 -270 91 -118 170 -216 174 -218 14 -5 243 300 238 317 -2 9 -78 115 -169
236 -90 121 -193 260 -229 309 -167 230 -215 291 -229 294 -8 1 -34 -17 -57
-40z"/>
<path d="M1829 1487 c-48 -60 -644 -856 -678 -905 -13 -18 -20 -36 -16 -40 8
-8 1227 -15 1270 -7 23 4 42 22 83 79 28 40 52 77 52 81 0 30 -622 826 -656
839 -9 3 -30 -15 -55 -47z"/>
<path d="M4408 1530 c-35 -21 -618 -806 -617 -831 0 -8 26 -48 57 -89 l58 -75
647 -3 c356 -1 647 2 647 6 0 10 -27 47 -109 152 -64 81 -334 440 -470 624
-100 134 -177 226 -190 226 -3 0 -13 -5 -23 -10z"/>
        </g>
    </mask>
</defs>

<!-- Círculo com gradiente aplicando a máscara -->
<circle cx="318" cy="318" r="318" fill="url(#bgGradient)" mask="url(#logoMask)"/>

</svg>
